<?xml version="1.0" encoding="UTF-8"?>
<svg width="15px" height="13px" viewBox="0 0 15 13" version="1.1" xmlns="http://www.w3.org/2000/svg" xmlns:xlink="http://www.w3.org/1999/xlink">
    <title>eye-show-icon</title>
    <defs>
        <polygon id="path-1" points="0 9.67741935e-05 15.0009677 9.67741935e-05 15.0009677 11.3712097 0 11.3712097"></polygon>
        <polygon id="path-3" points="0 9.67741935e-05 15.0009677 9.67741935e-05 15.0009677 11.3712097 0 11.3712097"></polygon>
    </defs>
    <g id="Page-1" stroke="none" stroke-width="1" fill="none" fill-rule="evenodd">
        <g id="Group-6" transform="translate(0.000000, 0.500000)">
            <g id="Fill-1-Clipped">
                <mask id="mask-2" fill="white">
                    <use xlink:href="#path-1"></use>
                </mask>
                <g id="path-1"></g>
                <path d="M13.6224919,6.21566129 C12.85725,7.85090323 11.5009597,9.09033871 9.80402419,9.70558065 C8.10684677,10.3203387 6.27152419,10.2380806 4.63628226,9.47283871 C3.20499194,8.80316129 2.04829839,7.64646774 1.37934677,6.21662903 C1.22329839,5.87912903 1.22329839,5.49251613 1.37862097,5.15646774 C2.48983065,2.79759677 4.89273387,1.26880645 7.50055645,1.26154839 C10.108379,1.26880645 12.5110403,2.79759677 13.6220081,5.15501613 C13.7780565,5.49251613 13.7780565,5.87912903 13.6224919,6.21566129 M14.7649113,4.62082258 C13.4514435,1.81364516 10.6007177,9.67741935e-05 7.50152419,9.67741935e-05 L7.49958871,9.67741935e-05 C4.4006371,9.67741935e-05 1.54966935,1.8138871 0.236201613,4.62130645 C-0.0787983871,5.29775806 -0.0787983871,6.0738871 0.236443548,6.75082258 C1.59805645,9.66033871 4.49450806,11.3713065 7.51289516,11.3713065 C8.64975,11.3713065 9.80402419,11.1284032 10.8999919,10.6155 C12.5981371,9.82074194 13.9703952,8.44848387 14.7649113,6.75033871 C15.0796694,6.0738871 15.0796694,5.29775806 14.7649113,4.62082258" id="Fill-1" fill="#1E1E1E" fill-rule="nonzero" mask="url(#mask-2)"></path>
            </g>
            <g id="Fill-4-Clipped">
                <mask id="mask-4" fill="white">
                    <use xlink:href="#path-3"></use>
                </mask>
                <g id="path-1"></g>
                <path d="M9.59179839,5.68572581 C9.59179839,6.83879032 8.65357258,7.77701613 7.50050806,7.77701613 C6.34768548,7.77701613 5.40945968,6.83879032 5.40945968,5.68596774 C5.41066935,4.5341129 6.34889516,3.5958871 7.50075,3.59467742 C8.65381452,3.59467742 9.59179839,4.53266129 9.59179839,5.68572581 M7.50050806,2.33322581 C5.65212097,2.33322581 4.14800806,3.83709677 4.14800806,5.68572581 C4.14800806,7.53459677 5.65212097,9.03846774 7.50050806,9.03846774 C9.3491371,9.03846774 10.85325,7.53459677 10.85325,5.68572581 C10.85325,3.83709677 9.3491371,2.33322581 7.50050806,2.33322581" id="Fill-4" fill="#1E1E1E" fill-rule="nonzero" mask="url(#mask-4)"></path>
            </g>
        </g>
    </g>
</svg>