<?xml version="1.0" encoding="UTF-8"?>
<svg width="15px" height="15px" viewBox="0 0 15 15" version="1.1" xmlns="http://www.w3.org/2000/svg" xmlns:xlink="http://www.w3.org/1999/xlink">
    <title>Group</title>
    <g id="Page-1" stroke="none" stroke-width="1" fill="none" fill-rule="evenodd">
        <g id="Group">
            <g id="Fill-1-Clipped"></g>
            <path d="M14.8127441,4.17668261 C14.5710578,3.93910587 14.1897789,3.95197568 13.9606728,4.20911454 L13.6742298,4.53961133 C12.49991,5.88682335 10.5344849,8.14109977 7.49804345,8.14109977 C4.4328125,8.14109977 2.46569387,5.86417248 1.29548692,4.50949597 L1.04267189,4.19907609 C0.816227051,3.94476858 0.435190055,3.93138398 0.187213596,4.17462344 C0.0708461067,4.29225353 0.00455776562,4.45055223 0.000203057082,4.62146334 C-0.00390972321,4.79185967 0.0546369138,4.95401931 0.159149919,5.07087721 L0.403739382,5.36508113 C0.708568979,5.71333827 1.01194701,6.0479534 1.30855104,6.36274902 L0.613733105,7.06363904 C0.41365844,7.29709744 0.404949023,7.6571948 0.593169203,7.90172125 C0.695262926,8.03402293 0.839694092,8.11638973 0.999608666,8.13337788 C1.16073288,8.14985124 1.3167766,8.09965897 1.45346607,7.97971231 L2.19812122,7.23635193 C2.68294544,7.6641445 3.20502661,8.04406138 3.75444568,8.36941025 L3.33832908,9.28162259 C3.19341405,9.59950696 3.31873289,9.98405697 3.61775622,10.1384947 C3.76291317,10.2131396 3.92645667,10.2234355 4.07838761,10.1673231 C4.23056048,10.1114681 4.35297617,9.99538241 4.42313537,9.84171684 L4.85425151,8.89913175 C5.51205443,9.16193332 6.19767909,9.32486516 6.89757753,9.38432369 L6.89757753,10.3585685 C6.89757753,10.712231 7.16781138,11 7.5002208,11 C7.83263022,11 8.103106,10.712231 8.103106,10.3585685 L8.103106,9.39230298 C8.80348829,9.33258705 9.48887103,9.16965521 10.1466739,8.90659624 L10.5777901,9.84918133 C10.6479493,10.0033617 10.7706069,10.11919 10.9227798,10.1753024 C11.0754365,10.2314148 11.2387381,10.2211189 11.3831692,10.1459592 C11.5280843,10.0713143 11.636952,9.94132919 11.6896923,9.77942695 C11.7424327,9.6175247 11.7329975,9.44326744 11.6625964,9.28882968 L11.2416412,8.36889546 C11.792028,8.04200221 12.3136253,7.66054096 12.7977237,7.23197619 L13.541895,7.98151409 C13.6587464,8.09914418 13.8060807,8.16503762 13.9727692,8.15654354 C14.1336515,8.15165301 14.2834051,8.08061165 14.3937244,7.95603186 C14.6218627,7.69915039 14.610976,7.29246431 14.3707412,7.05076922 L13.6984226,6.36558038 C14.0414769,6.00574042 14.3431614,5.66005724 14.6061374,5.35504268 L14.8456464,5.06675887 C15.062656,4.8101348 15.0500757,4.42095166 14.8127441,4.17668261" id="Fill-1" fill="#1E1E1E" fill-rule="nonzero"></path>
        </g>
    </g>
</svg>